# xmcd CD database file
#
# Track frame offsets:
#	150
#	14905
#	29892
#	45317
#	62587
#	74072
#	100390
#	117297
#	138212
#	152955
#	172552
#	188252
#	202977
#	226032
#	242997
#	255790
#	277517
#	298257
#	316165
#
# Disc length: 4413 seconds
#
# Revision: 2
# Processed by: cddbd v1.5.2PL0 Copyright (c) Steve Scherf et al.
# Submitted via: CDex 1.70beta2
#
DISCID=00113b13
DTITLE=Various Artist - The Winners 2 [CD2]
DYEAR=1994
DGENRE=Country
TTITLE0=Slim Dusy and Lee Kernaghan - Leave Him in the Longyard
TTITLE1=Anne Kirkpatrick - Game of Love
TTITLE2=Cameron Daddo - Praying for Rain
TTITLE3=Shanely Del - Red Roses
TTITLE4=Slim Dusty - Ringer from the Top End
TTITLE5=Kev Carmody - From Little Things Big Things Grow
TTITLE6=Darcy Leyear and the Wolverines - Like Your Momma Said
TTITLE7=James Blundell - Touch of Water
TTITLE8=Slim Dusty and Keith Urban - Lights on the Hill
TTITLE9=Norma O'Hara Murphy - Barbwire and Bamboo
TTITLE10=Peter Denahy - Dookie Swing
TTITLE11=Jane Saunders with Genni Kane and Shanely Del - Lonely Blue Heart
TTITLE12=Jan McNamara and Digger Revell - The Man With the Big Hat
TTITLE13=Noel Watson - Tom's Woman
TTITLE14=The Delltones with Allan Caswell - Stole My Heart Away
TTITLE15=Steve Gibson - Cowboys Don't Cry
TTITLE16=Chris Lawry - Ora Banda
TTITLE17=Shane Hogan - Son of a Drover
TTITLE18=Greg Champion - May Your Fridge be Full of Coldies
EXTD=YEAR: 1994
EXTT0=
EXTT1=
EXTT2=
EXTT3=
EXTT4=
EXTT5=
EXTT6=
EXTT7=
EXTT8=
EXTT9=
EXTT10=
EXTT11=
EXTT12=
EXTT13=
EXTT14=
EXTT15=
EXTT16=
EXTT17=
EXTT18=
PLAYORDER=
